<?xml version="1.0" encoding="utf-8"?>
<!-- Generator: Adobe Illustrator 16.0.0, SVG Export Plug-In . SVG Version: 6.00 Build 0)  -->
<!DOCTYPE svg PUBLIC "-//W3C//DTD SVG 1.1//EN" "http://www.w3.org/Graphics/SVG/1.1/DTD/svg11.dtd">
<svg version="1.1" id="Layer_1" xmlns="http://www.w3.org/2000/svg" x="0px" y="0px"
	 width="400px" height="200px" viewBox="382 255 80 80" xml:space="preserve">
<g>
	<g>
		<path fill="#45DFF4" d="M368.196,311.956l-13.756-10.297l-1.377,1.032c-2.347,1.755-2.347,4.604,0,6.358l15.134,11.33
			c2.347,1.756,6.15,1.756,8.497,0l15.134-11.33c2.348-1.755,2.348-4.604,0-6.358l-1.379-1.032l-13.755,10.297
			C374.346,313.712,370.543,313.712,368.196,311.956z"/>
		<path fill="#42A5F5" d="M391.827,294.269l-1.379-1.032l-13.755,10.296c-2.347,1.756-6.15,1.756-8.497,0l-13.756-10.296
			l-1.377,1.032c-2.347,1.755-2.347,4.603,0,6.359l1.377,1.031l13.756,10.297c2.347,1.756,6.15,1.756,8.497,0l13.755-10.297
			l1.379-1.031C394.174,298.871,394.174,296.023,391.827,294.269z"/>
		<path fill="#3B6BB4" d="M376.693,303.532l13.755-10.296l1.379-1.033c2.348-1.755,2.348-4.604,0-6.359l-1.267-0.948l-15.861,11.827
			c-1.245,0.933-3.264,0.933-4.509,0l-8.033-6.011c-1.245-0.933-1.245-2.443,0-3.376l16.104-11.647l-1.567-1.173
			c-2.347-1.757-6.15-1.757-8.497,0l-15.134,11.328c-2.347,1.756-2.347,4.604,0,6.359l1.377,1.033l13.756,10.296
			C370.543,305.288,374.346,305.288,376.693,303.532z"/>
	</g>
	<g>
		<path fill="#3B6BB4" d="M429.398,304.052c-1.371,1.654-2.985,2.914-4.848,3.779c-1.859,0.867-3.942,1.299-6.241,1.299
			c-2.068,0-3.987-0.374-5.757-1.123c-1.772-0.75-3.302-1.771-4.594-3.063c-1.293-1.292-2.314-2.824-3.063-4.595
			c-0.751-1.77-1.125-3.677-1.125-5.719c0-2.041,0.375-3.947,1.125-5.718c0.749-1.771,1.77-3.303,3.063-4.595
			c1.292-1.292,2.822-2.314,4.594-3.063c1.77-0.75,3.688-1.126,5.757-1.126c2.222,0,4.18,0.389,5.874,1.165
			c1.692,0.775,3.198,1.899,4.517,3.373l-3.683,3.566c-0.829-0.956-1.778-1.72-2.85-2.288c-1.073-0.567-2.346-0.853-3.819-0.853
			c-1.294,0-2.508,0.228-3.645,0.678c-1.137,0.452-2.126,1.093-2.966,1.92c-0.841,0.827-1.506,1.829-1.998,3.004
			c-0.49,1.177-0.736,2.488-0.736,3.936c0,1.448,0.246,2.76,0.736,3.935c0.491,1.178,1.157,2.179,1.998,3.006
			c0.839,0.826,1.829,1.466,2.966,1.918c1.137,0.454,2.351,0.678,3.645,0.678c1.55,0,2.926-0.315,4.127-0.948
			c1.203-0.633,2.269-1.531,3.199-2.694L429.398,304.052z"/>
		<path fill="#3B6BB4" d="M446.341,309.13c-2.067,0-3.987-0.374-5.758-1.123c-1.77-0.75-3.302-1.779-4.594-3.082
			c-1.294-1.305-2.306-2.844-3.044-4.615c-0.736-1.77-1.105-3.663-1.105-5.68c0-2.016,0.369-3.909,1.105-5.681
			c0.738-1.77,1.75-3.307,3.044-4.613c1.292-1.305,2.824-2.333,4.594-3.081c1.771-0.75,3.69-1.126,5.758-1.126
			s3.986,0.376,5.757,1.126c1.771,0.748,3.302,1.776,4.596,3.081c1.293,1.307,2.307,2.844,3.044,4.613
			c0.736,1.771,1.104,3.665,1.104,5.681c0,2.017-0.367,3.91-1.104,5.68c-0.737,1.771-1.751,3.311-3.044,4.615
			c-1.294,1.303-2.825,2.332-4.596,3.082C450.327,308.756,448.408,309.13,446.341,309.13z M446.341,304.166
			c1.292,0,2.501-0.231,3.626-0.696c1.123-0.465,2.106-1.111,2.944-1.939c0.841-0.826,1.5-1.828,1.979-3.003
			c0.477-1.178,0.716-2.476,0.716-3.897s-0.239-2.719-0.716-3.896c-0.479-1.175-1.139-2.178-1.979-3.007
			c-0.838-0.825-1.821-1.474-2.944-1.938c-1.125-0.464-2.334-0.697-3.626-0.697c-1.293,0-2.499,0.233-3.625,0.697
			c-1.124,0.464-2.108,1.112-2.946,1.938c-0.84,0.829-1.498,1.832-1.978,3.007c-0.479,1.177-0.718,2.474-0.718,3.896
			s0.238,2.72,0.718,3.897c0.479,1.175,1.138,2.177,1.978,3.003c0.838,0.828,1.822,1.475,2.946,1.939
			C443.842,303.935,445.048,304.166,446.341,304.166z"/>
		<path fill="#3B6BB4" d="M465.065,280.751h5.235v27.759h-5.235V280.751z"/>
		<path fill="#3B6BB4" d="M475.882,280.751h5.235v22.797h11.747v4.962h-16.982V280.751z"/>
	</g>
</g>
</svg>
