<svg width="150" height="24" fill="none" xmlns="http://www.w3.org/2000/svg"><path d="m57.86 12.87-1.992-.183c-1.306-.114-1.832-.572-1.832-1.374 0-.939.801-1.557 2.358-1.557 1.466 0 2.199.64 2.313 1.671h4.672c-.298-3.045-2.45-5.198-6.847-5.198-4.58 0-7.1 2.336-7.1 5.427 0 2.886 1.58 4.466 5.497 4.787l1.97.16c1.533.115 2.083.641 2.083 1.557 0 .962-.801 1.672-2.45 1.672-1.535 0-2.45-.687-2.61-1.9h-4.925c.435 3.32 2.771 5.518 7.512 5.518 4.603 0 7.145-2.358 7.145-5.542 0-3.091-1.695-4.671-5.794-5.038ZM41.738 6.229c-2.931 0-4.672 1.534-5.496 4.672h-.298V6.504h-4.626v16.672h4.924v-9.71c0-2.222 1.145-3.435 3.206-3.435 2.038 0 3.046 1.26 3.046 3.412v9.733h4.923V12.573c0-4.031-2.107-6.344-5.68-6.344ZM26.532 0C24.86 0 23.6 1.1 23.6 2.771c0 1.672 1.237 2.771 2.909 2.771 1.672 0 2.908-1.1 2.908-2.771C29.417 1.122 28.181 0 26.532 0Zm2.45 6.504h-4.924v16.672h4.924V6.504Zm42.412-3.527h-3.137c-.092 2.68-1.237 3.847-3.802 4.053v3.39h2.016v7.328c0 3.687 2.106 5.702 6.297 5.702.788 0 1.573-.1 2.336-.297V19.19a6.777 6.777 0 0 1-1.19.091c-1.764 0-2.52-.664-2.52-2.519V10.42h4.329V6.504h-4.329V2.977Zm78.092 7.443V6.504h-4.328V2.977h-3.092c-.069 1.855-.618 2.931-1.832 3.527v11.244c0 3.687 2.107 5.702 6.298 5.702.788 0 1.573-.1 2.336-.297V19.19a6.781 6.781 0 0 1-1.191.091c-1.764 0-2.519-.664-2.519-2.519V10.42h4.328Zm-16.122.733h-.298v-4.65h-4.557v16.673h4.924v-9.023c0-2.497 1.122-3.55 3.687-3.55.435 0 .916.046 1.58.16V6.458a4.064 4.064 0 0 0-1.397-.229c-1.993 0-3.367 1.145-3.939 4.924Zm-31.443 8.084c-2.313 0-3.985-1.535-3.985-4.512 0-2.656 1.557-4.305 3.939-4.305 2.038 0 3.206 1.145 3.55 2.977h4.992c-.481-4.283-3.549-7.168-8.473-7.168-5.405 0-8.954 3.664-8.954 8.68 0 5.198 3.412 8.541 8.885 8.541 4.97 0 8.199-2.77 8.657-7.26h-4.993c-.274 1.833-1.534 3.047-3.618 3.047ZM84.265 6.229c-4.283 0-6.87 2.107-7.329 5.885h4.718c.16-1.305 1.008-1.992 2.496-1.992 1.511 0 2.198.687 2.198 1.672 0 .824-.526 1.26-1.877 1.511l-2.245.413c-3.961.732-5.473 2.358-5.473 4.946 0 2.954 2.084 4.81 4.97 4.81 2.358 0 3.893-1.1 4.603-3.848h.297v3.55h4.65V12.298c0-3.779-2.268-6.069-7.008-6.069Zm-.55 13.878c-1.328 0-2.084-.71-2.084-1.764 0-.87.527-1.465 1.832-1.763l.916-.206c.79-.183 1.403-.427 1.97-.917v1.764c0 2.038-1.077 2.886-2.634 2.886Zm35.542-13.878c-4.283 0-6.87 2.107-7.328 5.885h4.717c.161-1.305 1.008-1.992 2.496-1.992 1.512 0 2.199.687 2.199 1.672 0 .824-.527 1.26-1.878 1.511l-2.244.413c-3.962.732-5.474 2.358-5.474 4.946 0 2.954 2.084 4.81 4.97 4.81 2.359 0 3.893-1.1 4.603-3.848h.298v3.55h4.649V12.298c0-3.779-2.268-6.069-7.008-6.069Zm-.55 13.878c-1.328 0-2.084-.71-2.084-1.764 0-.87.527-1.465 1.832-1.763l.916-.206c.79-.183 1.404-.427 1.97-.917v1.764c0 2.038-1.076 2.886-2.634 2.886Z" fill="#003D29"/><path d="M15.77 3.989c-1.012 0-1.734.441-2.4 1.399l-1.92 2.757V.275H6.87v7.87L4.95 5.388c-.665-.958-1.387-1.399-2.4-1.399C1.022 3.989.005 5.117 0 6.507c-.004 1.19.557 1.966 1.74 2.728l7.42 4.78 7.42-4.78c1.183-.762 1.744-1.538 1.74-2.728-.004-1.39-1.022-2.518-2.55-2.518Z" fill="#0AAD0A"/><path d="M9.16 15.16c4.41 0 8.025 3.292 8.015 8.016H1.145C1.136 18.454 4.75 15.16 9.16 15.16Z" fill="#FF7009"/></svg>