<svg width="652" height="200" xmlns="http://www.w3.org/2000/svg">
 <style type="text/css">.st0{fill:#FF8200;}
	.st1{fill:#43B02A;}</style>
 <g>
  <title>Layer 1</title>
  <g id="logos">
   <g id="Logo">
    <path d="m97.928925,88.033371c7.2,7.2 12.9,18.9 9.6,25.8c-8.9,18.6 -75.3,51.2 -80.9,45.6c-5.7,-5.6 27,-72.1 45.6,-81c6.9,-3.3 18.6,2.4 25.7,9.6l0,0z" class="st0" id="Carrot"/>
    <path d="m133.128925,80.133371l0,0c-1.2,-4.3 -4.1,-8.6 -8.5,-9.1c-8.1,-0.9 -20.8,13.3 -19.9,16.8c0.9,3.5 18.9,9.4 25.6,4.5c3.5,-2.4 3.9,-7.8 2.8,-12.2l0,0zm-25,-39.5c6,1.6 12,5.8 12.8,12c1.3,11.3 -18.7,29.2 -23.4,27.9s-13.1,-26.4 -6.4,-35.9c3.5,-4.8 11,-5.5 17,-4l0,0z" class="st1" id="Leaves"/>
   </g>
   <g id="Logotype">
    <path id="svg_1" d="m286.828925,107.633371l-5.9,-0.9c-5.7,-0.8 -8.9,-2.7 -8.9,-6c0,-3.8 4.3,-6.2 10.6,-6.2c4.1,0.2 8.1,1.4 11.6,3.4l0.7,0.4c2.7,1.3 6.1,0.3 7.5,-2.4l0.5,-0.9c1.6,-2.8 0.6,-6.3 -2.2,-7.9c-0.1,0 -0.1,-0.1 -0.2,-0.1c-5.5,-3 -11.6,-4.7 -17.8,-4.8c-15.1,0 -24.8,7.2 -24.8,19c0,9.6 6.9,15.7 20,17.5l6,0.8c6.3,0.9 9.4,2.8 9.4,5.7s-1.5,6.4 -11.3,6.4c-5.4,0.1 -10.7,-1.4 -15.3,-4.2c-0.9,-0.5 -1.9,-0.8 -2.9,-0.8c-2,0 -3.8,1.1 -4.8,2.7l-0.3,0.5c-0.8,1.3 -1.1,3 -0.7,4.5c0.4,1.5 1.4,2.8 2.7,3.5c6.6,3.6 13.9,5.7 21.5,5.9c15.8,0 25.5,-6.9 25.5,-19c-0.4,-9.6 -7.3,-15.1 -20.9,-17.1z" class="st1"/>
    <path id="svg_2" d="m470.028925,128.833371c-1.1,-1.3 -2.8,-2 -4.5,-2c-1.2,0 -2.3,0.3 -3.3,1c-3,2 -6.6,3 -10.2,3.1c-9.6,0 -16.3,-7.5 -16.3,-17.8c0,-10.3 6.9,-17.9 16.3,-17.9c3.5,0 7,1 10,3c2.5,1.5 5.7,1.2 7.7,-0.9l0.5,-0.6c2.5,-2.6 2.4,-6.7 -0.2,-9.2c-0.3,-0.3 -0.6,-0.5 -0.9,-0.7c-5,-3.2 -10.8,-4.9 -16.8,-4.8c-18.2,0 -30.9,12.7 -30.9,30.9s12.7,30.9 30.9,30.9c5.9,0.1 11.8,-1.6 16.8,-4.8c3,-2 3.8,-6.1 1.8,-9.1c-0.2,-0.2 -0.4,-0.5 -0.6,-0.7l-0.3,-0.4z" class="st1"/>
    <path id="svg_3" d="m175.928925,61.433371c-4.6,0 -8.4,3.8 -8.3,8.5c0,0 0,0 0,0.1c-0.2,4.6 3.4,8.4 8,8.5c0.1,0 0.2,0 0.4,0c4.7,0.2 8.7,-3.3 8.9,-8c0.2,-4.7 -3.3,-8.7 -8,-8.9c-0.3,0 -0.6,0 -0.9,0l0,-0.2l-0.1,0z" class="st1"/>
    <path id="svg_4" d="m178.528925,82.733371l-5,0c-2.4,0 -4.4,2 -4.4,4.4l0,50.9c0,2.4 2,4.4 4.4,4.4l5,0c2.4,0 4.4,-2 4.4,-4.4l0,-50.9c0,-2.4 -2,-4.4 -4.4,-4.4z" class="st1"/>
    <path id="svg_5" d="m341.828925,130.633371c-6.6,0 -12,-5.4 -12,-12l0,-23l12.1,0c2.4,0 4.4,-2 4.4,-4.4c0,0 0,0 0,0l0,-4c0,-2.4 -2,-4.4 -4.4,-4.4c0,0 0,0 0,0l-12.2,0l0,-13.2c0,-2.4 -2,-4.4 -4.4,-4.4l-5.3,0c-2.4,0 -4.4,2 -4.4,4.4l0,48.2c-0.3,14.1 10.8,25.8 25,26.2c0.1,0 0.1,0 0.2,0l0,0c3,0 5.5,-2.5 5.5,-5.5l0,-3.5c0,-2.4 -2,-4.4 -4.5,-4.4z" class="st1"/>
    <path id="svg_6" d="m221.328925,82.233371c-14.8,-0.4 -27.1,11.3 -27.5,26.1c0,0.1 0,0.1 0,0.2l0,29.5c0,2.4 2,4.4 4.4,4.4l5,0c2.4,0 4.4,-2 4.4,-4.4c0,0 0,0 0,0l0,-27.4c0,-9.2 5.5,-15.2 13.6,-15.2s13.6,6.1 13.6,15.2l0,27.4c0,2.4 2,4.4 4.4,4.4l5,0c2.4,0 4.4,-2 4.4,-4.4l0,-29.6c-0.3,-14.8 -12.6,-26.5 -27.3,-26.2c0.1,0 0,0 0,0z" class="st1"/>
    <path id="svg_7" d="m584.628925,82.933371c-3,-0.4 -6.1,-0.7 -9.2,-0.6l-0.7,0c-14.6,0 -26.4,11.8 -26.4,26.4l0,29.3c0,2.4 2,4.4 4.4,4.4c0,0 0,0 0,0l5,0c2.4,0 4.4,-2 4.4,-4.4l0,-28.8c-0.4,-7.2 5.2,-13.4 12.4,-13.8c0.3,0 0.6,0 0.9,0c1.4,0 2.8,0.2 4.2,0.5c0.4,0 0.8,0 1.2,0c2.8,0 5.2,-1.9 5.9,-4.7c0.4,-1.5 0.6,-2.6 0.9,-3.6c0.2,-1.1 0.1,-2.2 -0.5,-3.1c-0.6,-0.8 -1.5,-1.4 -2.5,-1.6z" class="st1"/>
    <path id="svg_8" d="m621.528925,95.633371c2.4,0 4.4,-2 4.4,-4.4c0,0 0,0 0,0l0,-4c0,-2.4 -2,-4.4 -4.4,-4.4c0,0 0,0 0,0l-12.1,0l0,-13.2c0,-2.4 -2,-4.4 -4.4,-4.4l-5.3,0c-2.4,0 -4.4,2 -4.4,4.4l0,48.2c-0.3,14.1 10.8,25.8 25,26.2c0.1,0 0.1,0 0.2,0l0,0c3,0 5.5,-2.5 5.5,-5.5l0,0l0,-3.5c0,-2.4 -2,-4.4 -4.5,-4.4c-6.6,0 -12,-5.4 -12,-12l0,-23l12,0z" class="st1"/>
    <path id="svg_9" d="m525.428925,87.033371l0,0c-5,-3.2 -10.8,-4.9 -16.8,-4.8l-0.5,0c-5.9,-0.1 -11.8,1.6 -16.8,4.8l0,0c-8.8,5.7 -13.9,15.6 -13.5,26.1c0,12 5.6,21.7 14.7,26.9c4.5,2.6 9.5,4 14.7,4c6.8,0.2 13.3,-2.7 17.8,-7.9l0,2.1c0,2.4 2,4.4 4.4,4.4l5.1,0c2.4,0 4.4,-2 4.4,-4.4l0,-25c0.5,-10.6 -4.7,-20.5 -13.5,-26.2zm-11.5,43c-1.6,0.5 -3.2,0.8 -4.8,0.9l-1.3,0c-1.6,-0.1 -3.2,-0.4 -4.8,-0.9c-6.8,-2.7 -11.2,-9.4 -10.8,-16.8c0,-9.6 6,-16.8 14.6,-17.7l0,0l0.6,0l2.2,0l0.6,0l0,0c8.5,0.9 14.6,8.1 14.6,17.7c0.3,7.3 -4,14.1 -10.9,16.8z" class="st1"/>
    <path id="svg_10" d="m399.828925,87.033371l0,0c-5,-3.2 -10.8,-4.9 -16.8,-4.8l-0.6,0c-5.9,-0.1 -11.8,1.6 -16.8,4.8l0,0c-8.7,5.8 -13.8,15.7 -13.3,26.1c0,12 5.6,21.7 14.7,26.9c4.5,2.6 9.5,4 14.7,4c6.8,0.2 13.3,-2.7 17.7,-7.9l0,2.1c0,2.4 2,4.4 4.4,4.4l5,0c2.4,0 4.4,-2 4.4,-4.4l0,-25c0.5,-10.6 -4.6,-20.5 -13.4,-26.2zm-11.5,43c-1.6,0.5 -3.2,0.8 -4.8,0.9l-1.3,0c-1.6,-0.1 -3.2,-0.4 -4.8,-0.9c-6.9,-2.7 -11.2,-9.4 -10.8,-16.8c0,-9.6 6,-16.8 14.6,-17.7l0,0l0.6,0l2.2,0l0.6,0l0.1,0c8.5,0.9 14.6,8.1 14.6,17.7c0.2,7.3 -4.2,14.1 -11,16.8z" class="st1"/>
   </g>
  </g>
 </g>
</svg>