<?xml version="1.0" encoding="utf-8"?>
<!DOCTYPE svg PUBLIC "-//W3C//DTD SVG 1.1//EN" "http://www.w3.org/Graphics/SVG/1.1/DTD/svg11.dtd">
<svg version="1.1" id="Layer_1" xmlns="http://www.w3.org/2000/svg" x="0px" y="0px" width="200px"
    height="200px" viewBox="332.5 200 140 140" xml:space="preserve">
<g>
	<g>
		<g>
			<path d="M402.729,327.812c-4.099,0-7.97-1.206-10.9-3.397l-35.627-26.672c-3.059-2.289-4.744-5.375-4.743-8.688
				c0-3.312,1.685-6.396,4.744-8.684l4.141-3.104l33.283,24.914c2.414,1.806,5.647,2.801,9.103,2.801
				c3.455,0,6.688-0.995,9.103-2.801l33.279-24.914l4.146,3.104c3.06,2.287,4.745,5.371,4.745,8.684
				c0.001,3.313-1.685,6.399-4.746,8.688l-35.626,26.672C410.699,326.605,406.828,327.812,402.729,327.812z M360.345,281.015
				L358,282.771c-2.284,1.708-3.542,3.939-3.542,6.283c0,2.344,1.257,4.577,3.541,6.285l35.627,26.672
				c2.414,1.806,5.646,2.8,9.103,2.8c3.456,0,6.688-0.994,9.103-2.8l35.626-26.671c2.286-1.709,3.545-3.941,3.544-6.286
				c0-2.343-1.258-4.574-3.543-6.282l-2.348-1.758l-31.482,23.568c-2.93,2.191-6.801,3.398-10.9,3.398
				c-4.099,0-7.97-1.207-10.9-3.398L360.345,281.015z"/>
		</g>
		<g>
			<path d="M402.729,307.981c-4.099,0-7.97-1.207-10.9-3.398l-35.627-26.669c-3.06-2.291-4.744-5.377-4.743-8.69
				c0.001-3.312,1.686-6.395,4.744-8.682l4.141-3.103l33.283,24.912c2.414,1.806,5.647,2.8,9.103,2.8
				c3.455,0,6.688-0.995,9.103-2.801l33.279-24.911l4.145,3.103c3.06,2.287,4.745,5.37,4.746,8.682
				c0.001,3.313-1.685,6.399-4.746,8.691l-35.626,26.669C410.699,306.774,406.828,307.981,402.729,307.981z M360.345,261.187
				L358,262.943c-2.284,1.708-3.541,3.938-3.542,6.281c-0.001,2.345,1.257,4.578,3.541,6.289l35.627,26.668
				c2.414,1.806,5.647,2.801,9.103,2.801c3.455,0,6.688-0.995,9.103-2.801l35.627-26.669c2.285-1.71,3.544-3.943,3.543-6.288
				c0-2.342-1.259-4.573-3.543-6.28l-2.348-1.758l-31.482,23.565c-2.93,2.192-6.801,3.399-10.9,3.399
				c-4.099,0-7.97-1.207-10.9-3.398L360.345,261.187z"/>
		</g>
		<path d="M412.73,283.551l32.381-24.238l3.246-2.432c5.526-4.131,5.526-10.837,0-14.971l-2.983-2.232l-37.338,27.843
			c-2.932,2.196-7.685,2.196-10.615,0l-18.911-14.15c-2.931-2.195-2.931-5.752,0-7.948l37.91-27.419l-3.689-2.761
			c-5.525-4.136-14.478-4.136-20.002,0l-35.627,26.668c-5.523,4.133-5.523,10.84,0,14.971l3.243,2.432l32.384,24.238
			C398.253,287.684,407.206,287.684,412.73,283.551z"/>
	</g>
</g>
</svg>
