<?xml version="1.0" encoding="utf-8"?>
<!DOCTYPE svg PUBLIC "-//W3C//DTD SVG 1.1//EN" "http://www.w3.org/Graphics/SVG/1.1/DTD/svg11.dtd">
<svg version="1.1" id="Layer_1" xmlns="http://www.w3.org/2000/svg" x="0px" y="0px" width="200px"
    height="200px" viewBox="332.5 200 140 140" xml:space="preserve">
<g>
	<g>
		<path fill="#45DFF4" d="M392.728,303.382l-32.384-24.241l-3.243,2.431c-5.523,4.131-5.523,10.837,0,14.97l35.627,26.672
			c5.525,4.132,14.478,4.132,20.002,0l35.627-26.672c5.526-4.133,5.526-10.839,0-14.97l-3.246-2.431l-32.381,24.241
			C407.206,307.515,398.253,307.515,392.728,303.382z"/>
		<path fill="#42A5F5" d="M448.357,261.742l-3.246-2.43l-32.381,24.238c-5.525,4.133-14.478,4.133-20.002,0l-32.384-24.238
			l-3.243,2.43c-5.523,4.131-5.523,10.835,0,14.971l3.243,2.428l32.384,24.241c5.525,4.133,14.478,4.133,20.002,0l32.381-24.241
			l3.246-2.428C453.884,272.577,453.884,265.873,448.357,261.742z"/>
		<path fill="#3B6BB4" d="M412.73,283.551l32.381-24.238l3.246-2.432c5.526-4.131,5.526-10.837,0-14.971l-2.983-2.232
			l-37.338,27.843c-2.932,2.196-7.685,2.196-10.615,0l-18.911-14.15c-2.931-2.195-2.931-5.752,0-7.948l37.91-27.419l-3.689-2.761
			c-5.525-4.136-14.478-4.136-20.002,0l-35.627,26.668c-5.523,4.133-5.523,10.84,0,14.971l3.243,2.432l32.384,24.238
			C398.253,287.684,407.206,287.684,412.73,283.551z"/>
	</g>
</g>
</svg>
